<?xml version="1.0" encoding="UTF-8" standalone="no"?>
<!-- Created with Inkscape (http://www.inkscape.org/) -->

<svg
   xmlns:dc="http://purl.org/dc/elements/1.1/"
   xmlns:cc="http://creativecommons.org/ns#"
   xmlns:rdf="http://www.w3.org/1999/02/22-rdf-syntax-ns#"
   xmlns:svg="http://www.w3.org/2000/svg"
   xmlns="http://www.w3.org/2000/svg"
   xmlns:sodipodi="http://sodipodi.sourceforge.net/DTD/sodipodi-0.dtd"
   xmlns:inkscape="http://www.inkscape.org/namespaces/inkscape"
   width="256mm"
   height="256mm"
   viewBox="0 0 256 256"
   version="1.1"
   id="svg8"
   inkscape:version="0.92.5 (2060ec1f9f, 2020-04-08)"
   sodipodi:docname="drawing-6.html">
  <defs
     id="defs2" />
  <sodipodi:namedview
     id="base"
     pagecolor="#ffffff"
     bordercolor="#666666"
     borderopacity="1.0"
     inkscape:pageopacity="0.0"
     inkscape:pageshadow="2"
     inkscape:zoom="0.49497475"
     inkscape:cx="661.6348"
     inkscape:cy="316.87107"
     inkscape:document-units="mm"
     inkscape:current-layer="layer1"
     showgrid="false"
     inkscape:window-width="1848"
     inkscape:window-height="1016"
     inkscape:window-x="72"
     inkscape:window-y="27"
     inkscape:window-maximized="1" />
  <metadata
     id="metadata5">
    <rdf:RDF>
      <cc:Work
         rdf:about="">
        <dc:format>image/svg+xml</dc:format>
        <dc:type
           rdf:resource="http://purl.org/dc/dcmitype/StillImage" />
        <dc:title></dc:title>
      </cc:Work>
    </rdf:RDF>
  </metadata>
  <g
     inkscape:label="Layer 1"
     inkscape:groupmode="layer"
     id="layer1"
     transform="translate(0,-41)">
    <g
       id="g833"
       transform="matrix(0.62621435,0,0,0.62621435,-25.433555,9.9398258)">
	<path
   id="path817"
   d="M 448,254.9 C 447.3,143.7 359.8,48.7 238.8,51.5 135.9,53.8 38.3,137.3 42.6,265.1 c 1.9,56.5 26.2,104.7 68.7,142.1 40.7,35.8 89.5,53.4 143.5,50.3 107.2,-6.3 191.3,-91 193.2,-202.6 z"
   class="st0"
   inkscape:connector-curvature="0"
   style="fill:#fefdfd" />

	<path
   id="path819"
   d="M 448,254.9 C 446.2,366.5 362.1,451.2 254.9,457.4 200.9,460.5 152.1,443 111.4,407.1 68.9,369.7 44.6,321.5 42.7,265 38.3,137.3 135.9,53.8 238.7,51.5 359.8,48.7 447.3,143.8 448,254.9 Z M 246.4,70 C 149.6,69.6 63,146.8 63,253.7 63,358 146.3,437.2 246.5,437.5 348,437.8 429.8,355 429.8,252.6 429.8,152.1 347.4,70 246.4,70 Z"
   class="st1"
   inkscape:connector-curvature="0"
   style="fill:#f0b90b" />

	<path
   id="path821"
   d="m 246.4,70 c 101,0 183.4,82.1 183.4,182.7 0,102.4 -81.8,185.1 -183.4,184.8 C 146.3,437.2 62.9,358 63,253.7 63,146.8 149.6,69.6 246.4,70 Z m -0.1,2.9 C 146.7,72.8 66.2,153.5 65.9,253.3 65.6,349.5 142.1,434.6 246.7,434.4 350.2,434.2 424.8,351.2 426.9,257.7 429.1,155 346.1,72.5 246.3,72.9 Z"
   class="st2"
   inkscape:connector-curvature="0"
   style="fill:#0b0e11" />

	<path
   id="path823"
   d="M 246.3,72.9 C 346,72.5 429.1,155 426.8,257.7 424.8,351.2 350.1,434.1 246.6,434.4 142,434.6 65.5,349.5 65.8,253.3 66.3,153.6 146.8,72.9 246.3,72.9 Z M 200,97.3 c -1.1,0.3 -1.9,0.5 -2.7,0.8 -54.7,18 -91.1,54.3 -109.3,109 -1,3 -0.3,4.9 1.5,7.1 9.4,11.9 18.5,24 27.9,35.8 2.4,3 3.1,5 0.3,8.5 -9.7,12.1 -18.8,24.6 -28.3,36.8 -2.1,2.7 -2.4,5 -1.4,8.2 18.2,54.4 54.4,90.8 108.9,108.9 3,1 5.2,0.7 7.8,-1.3 12.7,-9.7 25.6,-19.1 38.4,-28.7 2.9,-2.2 4.9,-2.7 8.1,-0.1 11.3,9.3 23,18.1 34.3,27.4 3.3,2.8 6.2,3.3 10.3,1.9 54.7,-19.7 90.6,-57.1 107.3,-112.9 0.9,-3 0.4,-4.9 -1.6,-7.1 -10.2,-11.7 -20.1,-23.5 -30.4,-35.1 -2.1,-2.4 -2,-3.8 -0.1,-6.2 9.8,-12.2 19.3,-24.6 29,-36.9 1.5,-1.9 2.4,-3.6 1.5,-6.3 -18.3,-54.8 -54.9,-91.2 -109.9,-109 -3,-1 -4.9,-0.3 -7.1,1.6 -11.6,9.8 -23.3,19.4 -34.8,29.3 -2.6,2.3 -4.3,2.4 -7.1,0.2 -12.7,-9.9 -25.6,-19.6 -38.5,-29.4 -1.4,-1.3 -2.5,-2.7 -4.1,-2.5 z"
   class="st1"
   inkscape:connector-curvature="0"
   style="fill:#f0b90b" />

	<path
   id="path825"
   d="m 200,97.3 c 1.6,-0.2 2.7,1.2 4,2.2 12.9,9.8 25.8,19.4 38.5,29.4 2.8,2.2 4.5,2.1 7.1,-0.2 11.5,-9.9 23.2,-19.5 34.8,-29.3 2.2,-1.9 4.1,-2.6 7.1,-1.6 55.1,17.8 91.6,54.2 109.9,109 0.9,2.7 0,4.4 -1.5,6.3 -9.7,12.3 -19.2,24.7 -29,36.9 -1.9,2.4 -2,3.8 0.1,6.2 10.2,11.6 20.2,23.5 30.4,35.1 2,2.3 2.5,4.2 1.6,7.1 -16.7,55.8 -52.6,93.2 -107.3,112.9 -4.1,1.5 -6.9,0.9 -10.3,-1.9 -11.3,-9.3 -23,-18.1 -34.3,-27.4 -3.2,-2.6 -5.2,-2.1 -8.1,0.1 -12.7,9.7 -25.6,19.1 -38.4,28.7 -2.6,2 -4.8,2.3 -7.8,1.3 C 142.3,394 106.1,357.6 87.9,303.2 c -1.1,-3.2 -0.7,-5.5 1.4,-8.2 9.5,-12.2 18.7,-24.7 28.3,-36.8 2.8,-3.4 2.1,-5.5 -0.3,-8.5 -9.4,-11.9 -18.6,-23.9 -27.9,-35.8 -1.8,-2.3 -2.5,-4.2 -1.5,-7.1 18.2,-54.7 54.6,-91 109.3,-109 0.9,0 1.7,-0.2 2.8,-0.5 z m 0.6,131.6 c -1.1,0.2 -1.3,0.9 -1.5,1.5 -11.2,29.3 -22.5,58.6 -33.7,87.9 -3.6,9.4 -3.5,9.2 6.5,9.5 3.9,0.1 5.4,-1.2 6.7,-4.8 4.4,-12.2 9.2,-24.2 13.8,-36.3 0.7,-1.8 1,-4.2 3.7,-4.1 3,0.1 2.5,2.9 2.7,4.6 2.7,18.4 13.3,30.4 30.1,37.3 2.8,1.1 3.4,2.5 3.3,5.1 -0.2,4.8 0,9.7 0,14.5 0,12.4 0,12.3 12.6,12.1 3.1,0 4.1,-0.9 4,-4 -0.2,-6.6 0,-13.3 -0.1,-20 0,-2.1 0.2,-3.5 3,-3.1 4.4,0.6 8.9,0.9 13.4,0.1 2.6,-0.4 3.5,1 3.4,3.5 -0.1,3.7 0,7.3 0,11 0,12.4 0,12.3 12.3,12 2.8,-0.1 3.8,-0.8 3.7,-3.7 -0.2,-6.2 0.3,-12.3 -0.2,-18.5 -0.4,-5.4 1.1,-8.3 6.4,-11 16.2,-8.1 24.8,-21.3 23.6,-39.9 -1.2,-17.8 -12.9,-26.9 -28,-32.8 -8.2,-3.2 -16.8,-5.3 -25.4,-7.1 -3.4,-0.7 -5.5,-2.3 -6.8,-5.6 -5.2,-13.3 -10.6,-26.5 -16,-39.8 -1.1,-2.6 -1.2,-4 2.2,-4.8 10.9,-2.3 21.8,-2.5 32.6,0.4 9.3,2.5 16.4,8 20.1,17.2 3.4,8.3 3.4,8.3 12.7,8.3 0.7,0 1.3,0 2,0 2.5,0.2 2.9,-0.7 2.6,-3.2 -1.4,-11 -5.7,-21.2 -15.4,-26.2 -10.8,-5.6 -12,-13.5 -10.8,-23.5 0.1,-1 0,-2 0,-3 0,-12.3 0,-12.1 -12.3,-11.9 -3.2,0.1 -3.9,1.2 -3.8,4.1 0.2,6.5 -0.1,13 0.1,19.5 0.1,2.9 -0.8,3.7 -3.8,3.4 -3.9,-0.5 -8,-0.5 -11.9,-0.4 -2.6,0.1 -3.6,-0.7 -3.4,-3.4 0.2,-3.7 0.1,-7.3 0.1,-11 0,-12.7 0,-12.6 -12.6,-12.2 -2.6,0.1 -3.5,0.8 -3.4,3.4 0.2,7.5 0,15 0.1,22.5 0,2.5 -0.7,3.8 -3.2,4.7 -6.5,2.4 -12.1,6.2 -17,11.1 -13.1,13.1 -15,42 8.3,54 5.8,3 11.7,6.2 18,7 8.4,1 12,5.8 13.7,13.1 0,0.2 0.1,0.3 0.2,0.5 1.6,2.7 0.1,3 -2.2,3 -16.3,0 -32.6,-0.1 -49,0 -2.5,0 -3.2,-0.4 -2.2,-3.1 2.8,-7.1 5.2,-14.3 7.8,-21.5 0.5,-1.3 1.6,-2.6 0.3,-4.1 -3.4,-3.4 -5.4,-7.9 -7.3,-12.3 z"
   class="st2"
   inkscape:connector-curvature="0"
   style="fill:#0b0e11" />

	<path
   id="path827"
   d="m 260.7,315.7 c -13.2,-0.3 -24.6,-2.6 -34.5,-10 -7.1,-5.3 -10.7,-12.5 -12.4,-20.9 -0.4,-2.2 -0.2,-3.7 2.5,-3.4 12.1,1.2 24.3,0.3 36.4,0.4 2.9,0 4.4,0.9 5.5,3.7 3.3,8.5 6.8,16.9 10.6,25.2 1.7,3.7 0.8,4.7 -3,4.6 -2,0 -4.1,0.3 -5.1,0.4 z"
   class="st2"
   inkscape:connector-curvature="0"
   style="fill:#0b0e11" />

	<path
   id="path829"
   d="m 299,289.7 c -0.2,7.2 -4,14.1 -11.6,19 -2.1,1.4 -3.5,2 -4.7,-1.3 -5.2,-14.9 -10.6,-29.6 -16.1,-44.4 -1.1,-2.9 -0.3,-3.3 2.3,-2.5 7,2.1 13.9,4.5 20.1,8.5 6.8,4.4 10,10.8 10,20.7 z"
   class="st2"
   inkscape:connector-curvature="0"
   style="fill:#0b0e11" />

	<path
   id="path831"
   d="m 242,238.2 c -6.8,-1.9 -12.5,-3.9 -17.3,-7.8 -7.9,-6.5 -8.2,-21.7 0.6,-29.9 1,-0.9 2.1,-1.2 2.7,0.4 4.6,12.2 9.2,24.4 14,37.3 z"
   class="st2"
   inkscape:connector-curvature="0"
   style="fill:#0b0e11" />

</g>
  </g>
  <style
     id="style815"
     type="text/css">
	.st0{fill:#FEFDFD;}
	.st1{fill:#f0b90b;}
	.st2{fill:#0B0E11;}
</style>
</svg>
